<?xml version="1.0" encoding="utf-8"?><!-- Uploaded to: SVG Repo, www.svgrepo.com, Generator: SVG Repo Mixer Tools -->
<svg width="800px" height="800px" viewBox="0 0 24 24" fill="none" xmlns="http://www.w3.org/2000/svg">
<path d="M13 4C12.4477 4 12 4.44772 12 5C12 5.55228 12.4477 6 13 6C14.2728 6 15.2557 6.41989 15.9179 7.08211C16.5801 7.74433 17 8.72725 17 10C17 10.5523 17.4477 11 18 11C18.5523 11 19 10.5523 19 10C19 8.27275 18.4199 6.75567 17.3321 5.66789C16.2443 4.58011 14.7272 4 13 4Z" fill="#0F0F0F"/>
<path d="M5.014 8.00613C5.12827 7.1024 6.30277 5.87414 7.23488 6.01043L7.23339 6.00894C8.01251 6.15699 8.65217 7.32965 9.07373 8.10246C9.14298 8.22942 9.20635 8.34559 9.26349 8.44465C9.55041 8.95402 9.3641 9.4701 9.09655 9.68787C9.06561 9.7128 9.03317 9.73855 8.9998 9.76504C8.64376 10.0477 8.18114 10.4149 8.28943 10.7834C8.5 11.5 11 14 12.2296 14.7107C12.6061 14.9283 12.8988 14.5057 13.1495 14.1438C13.2087 14.0583 13.2656 13.9762 13.3207 13.9067C13.5301 13.6271 14.0466 13.46 14.5548 13.736C15.3138 14.178 16.0288 14.6917 16.69 15.27C17.0202 15.546 17.0977 15.9539 16.8689 16.385C16.4659 17.1443 15.3003 18.1456 14.4542 17.9421C12.9764 17.5868 7 15.27 5.08033 8.55801C4.97981 8.26236 4.99645 8.13792 5.01088 8.02991L5.014 8.00613Z" fill="#0F0F0F"/>
<path d="M13 7C12.4477 7 12 7.44772 12 8C12 8.55228 12.4477 9 13 9C13.1748 9 13.4332 9.09745 13.6679 9.33211C13.9025 9.56676 14 9.82523 14 10C14 10.5523 14.4477 11 15 11C15.5523 11 16 10.5523 16 10C16 9.17477 15.5975 8.43324 15.0821 7.91789C14.5668 7.40255 13.8252 7 13 7Z" fill="#0F0F0F"/>
<path fill-rule="evenodd" clip-rule="evenodd" d="M7.51742 23.8312C7.54587 23.8469 7.57508 23.8612 7.60492 23.874C8.14762 24.1074 8.81755 23.5863 10.1574 22.5442L11.5 21.5C14.1884 21.589 16.514 21.2362 18.312 20.6071C20.3227 19.9035 21.9036 18.3226 22.6072 16.3119C23.5768 13.541 23.5768 8.45883 22.6072 5.68794C21.9036 3.67722 20.3227 2.0963 18.312 1.39271C15.1103 0.272407 8.82999 0.293306 5.68806 1.39271C3.67733 2.0963 2.09642 3.67722 1.39283 5.68794C0.423255 8.45883 0.423255 13.541 1.39283 16.3119C2.09642 18.3226 3.67733 19.9035 5.68806 20.6071C6.08252 20.7451 6.52371 20.8965 7 21C7 22.6974 7 23.5461 7.51742 23.8312ZM9 20.9107V19.7909C9 19.5557 8.836 19.3524 8.60597 19.3032C7.84407 19.1403 7.08676 18.9776 6.34862 18.7193C4.91238 18.2168 3.78316 17.0875 3.2806 15.6513C2.89871 14.5599 2.66565 12.8453 2.66565 10.9999C2.66565 9.15453 2.89871 7.43987 3.2806 6.3485C3.78316 4.91227 4.91238 3.78304 6.34862 3.28048C7.61625 2.83692 9.71713 2.56282 11.9798 2.56032C14.2422 2.55782 16.3561 2.82723 17.6514 3.28048C19.0876 3.78304 20.2169 4.91227 20.7194 6.3485C21.1013 7.43987 21.3344 9.15453 21.3344 10.9999C21.3344 12.8453 21.1013 14.5599 20.7194 15.6513C20.2169 17.0875 19.0876 18.2168 17.6514 18.7193C15.5197 19.4652 13.259 19.549 11.0239 19.4828C10.9071 19.4794 10.7926 19.5165 10.7004 19.5882L9 20.9107Z" fill="#0F0F0F"/>
</svg>